PathFileType	4	(X/Y/Z)	Patient4_TMGait_0pt7_01_right_01.trc.trc
DataRate	CameraRate	NumFrames	NumMarkers	Units	OrigDataRate	OrigDataStartFrame	OrigNumFrames
85.889570552147	85.889570552147	5	33	mm	85.889570552147	1	       141
Frame#	Time	Sacral			L.Shoulder			Chest			R.Shoulder			Neck			R.ASIS			L.ASIS			R.Thigh.Superior			R.Thigh.Lateral			R.Thigh.Inferior			R.Patella			L.Thigh.Superior			L.Thigh.Lateral			L.Thigh.Inferior			L.Patella			L.Shank.Superior			L.Shank.Lateral			L.Shank.Inferior			R.Shank.Superior			R.Shank.Lateral			R.Shank.Inferior			R.Heel			R.Midfoot.Superior			R.Midfoot.Lateral			R.Toe			L.Heel			L.Midfoot.Lateral			L.Midfoot.Superior			L.Toe			L.Elbow			L.Wrist			R.Elbow			R.Wrist			
		X1	Y1	Z1	X2	Y2	Z2	X3	Y3	Z3	X4	Y4	Z4	X5	Y5	Z5	X6	Y6	Z6	X7	Y7	Z7	X8	Y8	Z8	X9	Y9	Z9	X10	Y10	Z10	X11	Y11	Z11	X12	Y12	Z12	X13	Y13	Z13	X14	Y14	Z14	X15	Y15	Z15	X16	Y16	Z16	X17	Y17	Z17	X18	Y18	Z18	X19	Y19	Z19	X20	Y20	Z20	X21	Y21	Z21	X22	Y22	Z22	X23	Y23	Z23	X24	Y24	Z24	X25	Y25	Z25	X26	Y26	Z26	X27	Y27	Z27	X28	Y28	Z28	X29	Y29	Z29	X30	Y30	Z30	X31	Y31	Z31	X32	Y32	Z32	X33	Y33	Z33	

1	0.550000000000	750.706018489862	1010.927597733661	487.308539662874	957.421247940734	1428.723614205451	306.785981144852	1046.650279723654	1361.464558070244	478.061473416547	952.576261730146	1446.006144357997	641.949821205256	950.890434793625	1495.124167668595	461.128145416113	968.372835073478	946.359610370206	618.453906057892	974.866744745621	961.843054888387	344.802518246497	1053.206852393152	778.057303949456	597.119106916328	1009.378207090374	656.836829476919	669.069333325718	1106.507092276748	618.628749380493	598.233888397875	1122.920308427194	502.302809157579	620.979035402986	1023.989549156244	754.585500120124	372.555485315340	938.197259966612	639.414422291718	310.549638708042	1018.727530856697	562.400227615142	378.287348502389	1018.221501367029	494.002726711014	388.797310281578	995.937910849857	421.802297893083	377.900841701218	914.021868962386	304.475730714693	322.544900006669	965.497059268625	195.227628672879	396.554237946746	1040.161292107851	431.395644583207	619.756779545834	910.328531623080	404.027270303808	668.812057164188	889.131781391326	297.517867110542	617.085100352125	688.748370048711	266.144136702015	571.377873068955	839.892921562137	175.351009618162	621.739871080688	728.693817853122	192.105558912153	644.644213424761	880.654952039322	51.321247093992	644.754503041992	839.644871959012	37.303837602419	433.290582613020	915.591647198826	35.425755023409	353.955090112843	997.348713322127	96.530110037742	384.209141658771	1126.901628137701	46.508404057981	358.307919806616	924.029559254252	1081.788387111945	183.607112531219	1014.251679437650	834.923588317985	194.681778867528	897.606964693994	1107.285033061208	772.429799932813	1104.806875979212	951.633799375616	772.054280425442	
2	0.561642857143	750.297140335253	1011.448857720836	486.373357701151	958.962596698440	1429.778354864491	307.103814845505	1046.982267480984	1361.829220316588	478.648198028116	951.993528133856	1445.841572478438	642.247320590157	951.386566775347	1495.613682043634	461.581207555266	967.890765517666	947.327706267722	618.097941488742	974.926797423931	962.305230690322	344.318533722293	1055.114330466924	782.319835137116	596.112846885419	1014.782773514415	660.677550882423	668.772860074029	1111.953192193484	624.300584722462	597.295590189907	1131.368636249896	508.965432079090	620.431235113074	1021.412476325174	753.632086617836	372.713759982555	934.342160372172	639.537922961941	310.130836851619	1013.529411592773	561.442884389502	378.165657612870	1012.099485366416	493.182425265243	388.703786982261	989.590592303989	421.333913370169	377.810390185448	907.140395415470	304.432628469528	322.359206940693	957.635833578637	194.972266414574	396.533897914446	1051.489490291868	435.431485166223	619.461514091173	923.424587615381	402.574623156234	668.929743758299	906.534607959282	295.443270002007	617.106860182646	707.658615094044	255.273532978078	572.272587500195	862.540740565156	171.446281076203	621.794955539159	751.205572325384	183.454326435928	645.504230247490	908.976738332501	49.743978603654	644.885622472107	830.967687554552	37.334072182140	433.258982746869	906.992390663007	35.465481979268	353.940670218170	988.836621823163	96.468404048216	384.229548265055	1118.355285619416	46.142552186809	358.297543107470	930.966678727792	1083.471305292683	181.597655730593	1035.631118281106	843.746508587675	192.746788637321	889.760202887266	1107.570026188380	770.805363953463	1078.891401323833	934.403177149075	773.070632064530	
3	0.573285714286	749.896979363086	1011.953020549616	485.468047859375	960.504593543586	1430.805382276392	307.438511261110	1047.318703449885	1362.168469051250	479.247897924740	951.431778902269	1445.662619421365	642.568147692195	951.884078773961	1496.081331047873	462.045784358396	967.411553053298	948.253764280433	617.768656641391	975.031910954572	962.766384528719	343.848890975094	1056.959048333150	786.477489531239	595.147086857710	1020.023053430301	664.408309069273	668.484997277341	1117.216459502527	629.800252297370	596.397888537463	1139.532530225403	515.483448117940	619.934160886304	1018.855896321404	752.689349347085	372.915574601376	930.549011481158	639.644457762491	309.726305252360	1008.393211865369	560.488846517198	378.049984435115	1006.053153633495	492.369970995091	388.611951287311	983.321546751030	420.861642030856	377.719491826292	900.339962073034	304.387181352738	322.177254100171	949.863111275870	194.714373083126	396.515103684758	1062.571245965530	439.321448372572	619.215437247181	936.327744852229	400.910270482174	669.083454903592	923.836711208744	293.162118268863	617.211622590694	726.572474300505	244.080511719227	573.204164149580	885.172500912406	167.358427355586	621.994052884218	773.704150038479	174.565593376715	646.437811685594	937.315015045799	48.059593068199	645.266284160952	822.400134780795	37.363505977150	433.229044604578	898.497181758354	35.501173951657	353.926826226265	980.428085508103	96.405459017072	384.248761918135	1109.914242431163	45.783999575996	358.286210528862	937.732612764480	1085.143465279697	179.620993545017	1056.678158367253	852.676696011453	190.870413428102	882.141783895250	1107.810396415350	769.194275704885	1053.058809510385	917.702012349715	774.046294944658	
4	0.584928571429	749.531760657012	1012.414405868074	484.625218401027	962.056524188917	1431.774616331247	307.824185849935	1047.673599294695	1362.448659814275	479.887381629002	950.923224348279	1445.445579445198	642.948964138988	952.394517921688	1496.498522918613	462.550792312455	966.953551035991	949.085081780522	617.499200196960	975.232498319937	963.217001017559	343.415005746954	1058.652313872691	790.356606957675	594.276285837051	1024.857011048657	667.861601186844	668.226327870458	1122.035669290848	634.878136407699	595.587053217882	1147.058801272299	521.676613223340	619.521553452058	1016.331025373932	751.752779851873	373.192145614474	926.835627669346	639.720245741534	309.348499934373	1003.327027388312	559.534650116510	377.939344362111	1000.093712092113	491.567140440257	388.517577786482	977.139287948647	420.381689204215	377.624652886651	893.626492745090	304.338970678414	322.001401971050	942.189912410944	194.452496224075	396.497444612345	1073.154054948911	442.920043486661	619.065788601653	948.953452932627	398.798707348962	669.338131855600	941.105276808688	290.510742091650	617.493983446188	745.838786881954	232.204182781132	574.252331226513	908.042134766464	163.016293839532	622.494722867973	796.529450471330	165.237191017516	647.551500342369	965.982597680602	46.387015527596	646.123063794692	813.965279195111	37.394387874062	433.200792208443	890.123666826921	35.530487854859	353.914616900947	972.140940047561	96.339993940337	384.265563103096	1101.596595096193	45.437423669541	358.273564995936	944.213145655169	1086.804368115240	177.714648493594	1077.159023192067	861.968389514984	189.124409740453	874.896265009322	1107.989426733219	767.603373005619	1027.292707995774	902.077225559252	774.933441021276	
5	0.596571428571	749.229257910601	1012.810205554472	483.872793813842	963.626656921909	1432.660827464462	308.292871634167	1048.061222997489	1362.639546988108	480.591713633225	950.499382057690	1445.168616564710	643.422831701427	952.930519663702	1496.839856792075	463.125557394665	966.536729031601	949.776520300123	617.317649076443	975.565950751559	963.643418799272	343.037451151520	1060.114400501163	793.793740090717	593.547199179619	1029.058369653638	670.875606361908	668.011246153525	1126.172798050721	639.299813868602	594.902707890519	1153.632562637552	527.377347989549	619.214670093382	1013.845801768560	750.812152763834	373.561050938449	923.203073441807	639.756771285293	309.006808897418	998.323038472364	558.575259379305	377.831244893297	994.214029903067	490.774012951291	388.415319076770	971.033444532040	419.891304753868	377.522583113950	886.985564119981	304.288257238930	321.833146654771	934.603990297504	194.185878240436	396.480673431495	1083.023121964338	446.106391216050	619.048553355997	961.265067079942	396.046838850966	669.758068125937	958.440922387639	287.380733612707	618.035055564950	765.850098584903	219.361496787326	575.504074300062	931.432540574262	158.412332998131	623.422190079101	820.067367333498	155.337050448772	648.947989533450	995.312708507737	44.911217289590	647.617103800323	805.658179346784	37.429802776465	433.173073381903	881.862952324762	35.552480472608	353.904906754474	963.967147334309	96.271627129253	384.278424535962	1093.393148157507	45.104875813721	358.259359664109	950.338483244676	1088.455513035560	175.911833818783	1096.904135929030	871.863121893733	187.572360623481	868.110425089550	1108.103376731024	766.031926748691	1001.581771989048	887.993813558174	775.692111606756	
